HIERARCHY
ROOT base
{
	OFFSET 0.0 0.0 0.0
	CHANNELS 6 Xposition Yposition Zposition Zrotation Yrotation Xrotation
	JOINT root
	{
		OFFSET 0 0 0
		CHANNELS 6 Xposition Yposition Zposition Zrotation Yrotation Xrotation
		JOINT chest
		{
			OFFSET 0 4.72302 0
			CHANNELS 3 Zrotation Yrotation Xrotation
			JOINT neck
			{
				OFFSET 0 4.47788 0
				CHANNELS 3 Zrotation Yrotation Xrotation
				End Site
				{
					OFFSET 0.0 0.0 0.0
				}
			}
			JOINT right_shoulder
			{
				OFFSET -0.481 4.87 3.6622
				CHANNELS 3 Zrotation Yrotation Xrotation
				JOINT right_elbow
				{
					OFFSET 0 -5.49576 0
					CHANNELS 3 Zrotation Yrotation Xrotation
					JOINT right_wrist
					{
						OFFSET 0 -5.17894 0
						CHANNELS 3 Zrotation Yrotation Xrotation
						End Site
						{
							OFFSET 0.0 0.0 0.0
						}
					}
				}
			}
			JOINT left_shoulder
			{
				OFFSET -0.481 4.87 -3.6622
				CHANNELS 3 Zrotation Yrotation Xrotation
				JOINT left_elbow
				{
					OFFSET 0 -5.49576 0
					CHANNELS 3 Zrotation Yrotation Xrotation
					JOINT left_wrist
					{
						OFFSET 0 -5.17894 0
						CHANNELS 3 Zrotation Yrotation Xrotation
						End Site
						{
							OFFSET 0.0 0.0 0.0
						}
					}
				}
			}
		}
		JOINT right_hip
		{
			OFFSET 0 0 1.69774
			CHANNELS 3 Zrotation Yrotation Xrotation
			JOINT right_knee
			{
				OFFSET 0 -8.43092 0
				CHANNELS 3 Zrotation Yrotation Xrotation
				JOINT right_ankle
				{
					OFFSET 0 -8.1974 0
					CHANNELS 3 Zrotation Yrotation Xrotation
					End Site
					{
						OFFSET 0.0 0.0 0.0
					}
				}
			}
		}
		JOINT left_hip
		{
			OFFSET 0 0 -1.69774
			CHANNELS 3 Zrotation Yrotation Xrotation
			JOINT left_knee
			{
				OFFSET 0 -8.43092 0
				CHANNELS 3 Zrotation Yrotation Xrotation
				JOINT left_ankle
				{
					OFFSET 0 -8.1974 0
					CHANNELS 3 Zrotation Yrotation Xrotation
					End Site
					{
						OFFSET 0.0 0.0 0.0
					}
				}
			}
		}
	}
	JOINT red_arrow
	{
		OFFSET 0 0 0
		CHANNELS 3 Zrotation Yrotation Xrotation
		End Site
		{
			OFFSET 0.0 0.0 0.0
		}
	}
	JOINT blue_arrow
	{
		OFFSET 0 0 0
		CHANNELS 3 Zrotation Yrotation Xrotation
		End Site
		{
			OFFSET 0.0 0.0 0.0
		}
	}
}
MOTION
Frames: 9
Frame Time: 0.0333333333333333
642.00676843524 0 -23.990385068953 0 -3.22328967965141 0 0 15.7089502453804 0 -17.3199937781491 7.23713961465166 4.18540946704903 -3.16147512841216 -0.193276139559673 -8.88842534366821 3.74723827413684 -4.95157180273189 -1.05883303196632 -7.32465272985975 24.4170920966244 -29.3541257722801 71.4846915514618 0 0 0 0 0 -22.5858647291419 -1.79161390806214 28.6562176859374 65.4193128137612 0 0 0 0 0 6.65602403555254 -12.0457237679124 -14.3168242409067 -93.6717414475478 0 0 -10.8318997985347 5.1675647257249 26.0197131655435 51.1597012482476 8.60177340129872 -7.89001514617297 -46.9201142769968 0 0 13.0368509762531 6.27124288713405 5.21221318654548 0 0 0 0 0 0
643.84006780386 0 -24.0786580562592 0 -2.72788290499917 0 0 15.6658478498459 0 -18.8812940045536 8.914599389401 4.37651152143333 -2.17402340961897 -2.33413936328166 -8.20957414665367 2.28227221591854 -4.67293320473917 -0.949009169321174 -17.9395420578699 22.3483444052708 -31.3593710174095 65.6755200397175 0 0 0 0 0 -4.532848569141 -10.8021662215514 28.3974574896482 68.8579032495124 0 0 0 0 0 23.2630262616998 -9.58515057201162 -17.7382413646766 -101.901231472821 0 0 -1.94603004754492 2.85211285405607 26.6473274936468 48.4506268969905 5.65521715558681 -10.4164553991612 -51.477967812038 0 0 21.9345707009191 7.39716411969873 4.85114067909622 0 0 0 0 0 0
645.581887918711 0 -24.0946414485574 0 -2.22442423187438 0 0 15.8445608615875 0 -20.9818444469765 8.94205306501684 3.24851436171571 -1.62287959101062 -4.23347791372533 -5.5451883948732 -0.393874058963963 -3.62726519677928 -0.578769668731705 -29.0107037072954 19.8713504776619 -34.9626570770387 58.4182937824172 0 0 0 0 0 14.7613377084878 -20.2473726491716 28.7815561907959 73.4219722566983 0 0 0 0 0 43.3163546929253 -4.49695567917441 -18.7204183806215 -104.108844235218 0 0 7.22966519339358 0.0770668962527631 27.4866229361847 43.6072362564974 1.95575970890868 -10.7259064040997 -49.8551797520401 0 0 27.6294880168149 8.78614796541091 4.46359815418938 0 0 0 0 0 0
647.444456428289 0 -24.0288104042411 0 -1.79056691878726 0 0 16.1557092785835 0 -22.7448928368932 7.61007613144764 1.32713894170418 -1.51138520734466 -5.38683117789526 -1.6613809715271 -3.01972112151216 -2.44116288543542 0.554897802867994 -41.4088534953129 17.9261477825517 -38.4768668409521 49.7420718193847 0 0 0 0 0 33.7272361536936 -28.8366679883926 28.2953205194349 78.9849291092419 0 0 0 0 0 62.5278273598736 1.85461145122281 -15.6529894327599 -102.82637376571 0 0 16.6336380135821 -2.2606831757321 27.3801431813735 35.2329459036017 -0.82085403366355 -8.4182692122381 -42.7694834504609 0 0 30.8334707462039 9.29864398647896 3.94064687253501 0 0 0 0 0 0
649.442438673973 0 -23.8742056451738 0 -1.55064668825251 0 0 16.4875364899635 0 -24.4809490482039 4.15017479327783 -0.976194741477898 -1.97731144852326 -5.20676305621496 2.42936046807479 -4.36109820478281 -1.19464961784901 2.16401701808868 -53.3287399381942 13.6182051105651 -41.3894762662405 46.9076184459103 0 0 0 0 0 49.304097665708 -34.8343691766925 27.4933651379789 85.6674700799665 0 0 0 0 0 78.3386873878447 7.00323219114453 -8.35742152517425 -95.2000099347165 0 0 23.6882810478625 -3.85890559516862 27.0843490400334 24.3580454299777 -0.536877530239125 -3.81458441401927 -31.4709606197638 0 0 29.4992629759192 9.39676385472589 2.60916506219706 0 0 0 0 0 0
651.504238200188 0 -23.6878533266485 0 -1.54306201748351 0 0 16.8394723653793 0 -26.288544190032 0.129204351261198 -2.68683124938313 -3.02678104872555 -5.22426453950261 5.84562150070875 -5.4402175602251 0.252844988029781 3.48672023209085 -61.5105675958809 6.36557996182011 -42.1785488212772 48.9120774767285 0 0 0 0 0 56.6635798296521 -36.7154818936537 28.5675992376638 92.6416464678723 0 0 0 0 0 88.1716358786472 8.44221251873942 -0.783370998994767 -81.384558979775 0 0 27.5143507626864 -5.15800920164173 26.4655244901771 14.3817179050278 1.6541525248568 -0.126594830054153 -20.5053856054426 0 0 18.5724552067223 10.1572284348813 -0.343565407036277 0 0 0 0 0 0
653.648389780521 0 -23.4703838922083 0 -1.71146161346748 0 0 17.1482318282127 0 -27.1638787679438 -2.84730787683845 -3.69220793805247 -5.11927213023826 -6.10806319222578 8.01555053516321 -5.91712412651833 1.41804382366793 4.63278585530597 -65.0943075598383 -1.27345859073768 -40.4062777654153 52.7026514660726 0 0 0 0 0 55.4632515823884 -35.952672913534 32.0541086776398 98.0114250801204 0 0 0 0 0 90.7567186834389 6.89172653786629 4.67303868230791 -66.1226173925974 0 0 28.8156526648742 -5.44295067194818 24.5372264496004 6.27088857453156 4.8390643744041 2.24832670893727 -12.7650899502249 0 0 -1.58189478429049 8.73100219973559 -5.29699643575103 0 0 0 0 0 0
655.905414992571 0 -23.2162668272853 0 -1.94551782120882 0 0 17.303838956356 0 -26.4933128377382 -3.98165516397012 -4.31970159544136 -7.86878467886515 -7.51485405666965 8.81542991620404 -4.99553978426172 1.60998836386085 5.28224671844928 -64.0967945870666 -7.57207449645805 -36.443398528971 56.7476431718105 0 0 0 0 0 48.8169303169114 -34.1773941801193 36.0103337658815 100.131884628708 0 0 0 0 0 87.2599787810124 3.88632433593041 7.4870279896134 -53.2438927313773 0 0 28.1289572379029 -4.53492240459936 21.3757729141181 -0.0965967212961465 5.60904800061217 3.96471253432696 -10.7454328947298 0 0 -21.5585607898658 2.58185003638312 -11.0925728282044 0 0 0 0 0 0
658.261129164696 0 -22.9405816674232 0 -2.16430124055985 0 0 17.2683147788048 0 -24.6227758765945 -3.780052126781 -4.93810203365944 -10.4506256357122 -8.569697364386 8.87117485882664 -3.09015149552827 0.487832356412355 5.13005287035765 -59.7083479683486 -11.4668915911046 -31.9766748719618 60.6300592998291 0 0 0 0 0 39.7657289672887 -32.8445238154576 38.9016865753442 98.6649307497181 0 0 0 0 0 80.2639726424071 0.957010557584146 8.67222476679789 -44.5293978033306 0 0 26.4974739550115 -4.04238172678335 18.9237484672556 -3.9887876375247 8.68988647977589 6.27743859943271 -16.4154563776079 0 0 -31.1149912837228 -3.13782933961294 -16.8617573282236 0 0 0 0 0 0
